<svg xmlns="http://www.w3.org/2000/svg" viewBox="0 0 1920 1080"><defs><style>.cls-1{fill:#ffe2c5;}.cls-2{fill:#c7b299;}.cls-3{fill:#e0bfa4;}.cls-13,.cls-4{fill:#fff;}.cls-5{fill:#d2f9ff;}.cls-6{font-size:60px;}.cls-10,.cls-16,.cls-6,.cls-8{fill:#58c1cc;}.cls-6,.cls-8{font-family:Futura-Bold, Futura;font-weight:700;}.cls-7{letter-spacing:-0.05em;}.cls-8{font-size:36px;}.cls-9{letter-spacing:-0.06em;}.cls-10,.cls-13{font-size:30px;font-family:Futura-Medium, Futura;font-weight:500;}.cls-11{letter-spacing:0.02em;}.cls-12{letter-spacing:-0.04em;}.cls-14{fill:#603813;}.cls-15{fill:#ff7bac;}</style></defs><g id="left-and-right-wall"><rect class="cls-1" x="0.38" width="1920" height="1080"/></g><g id="floor"><polygon class="cls-2" points="1920.38 1080 0.39 1080 306.49 736.9 1614.28 736.9 1920.38 1080"/></g><g id="back-wall"><rect class="cls-3" x="306.49" width="1307.8" height="736.9"/></g><g id="paper"><path class="cls-4" d="M549.84,221.16H723.18a0,0,0,0,1,0,0V363.29A31.22,31.22,0,0,1,692,394.5H581.06a31.22,31.22,0,0,1-31.22-31.22V221.16a0,0,0,0,1,0,0Z"/></g><g id="bar"><rect class="cls-5" x="543.19" y="175" width="185.99" height="67.16"/></g><g id="month"><text class="cls-6" transform="translate(600.05 309.84)"><tspan class="cls-7">0</tspan><tspan x="37.74" y="0">1</tspan></text></g><g id="year"><text class="cls-8" transform="translate(590.5 362.86)">20<tspan class="cls-9" x="48.96" y="0">2</tspan><tspan x="71.39" y="0">1</tspan></text></g><g id="shadow"><text class="cls-10" transform="translate(557.89 224.3)"><tspan class="cls-11">C</tspan><tspan x="21.56" y="0">ALEN</tspan><tspan class="cls-12" x="99.38" y="0">D</tspan><tspan x="120.04" y="0">AR</tspan></text></g><g id="calendar"><text class="cls-13" transform="translate(555.94 220.3)"><tspan class="cls-11">C</tspan><tspan x="21.56" y="0">ALEN</tspan><tspan class="cls-12" x="99.38" y="0">D</tspan><tspan x="120.04" y="0">AR</tspan></text></g><g id="brooklyn-external-ear"><circle class="cls-14" cx="449.85" cy="622.41" r="38.69"/><circle class="cls-14" cx="656.37" cy="622.41" r="38.69"/></g><g id="brooklyn-inner-ear"><circle class="cls-4" cx="449.86" cy="622.41" r="30.98"/><circle class="cls-4" cx="656.37" cy="622.41" r="30.98"/></g><g id="brooklyn-body"><rect class="cls-14" x="399.86" y="603.98" width="299.96" height="250.35" rx="117.14"/></g><g id="brooklyn-eyes"><circle class="cls-4" cx="499.96" cy="729.16" r="11.43"/><circle class="cls-4" cx="607.61" cy="729.16" r="11.43"/></g><g id="manhattan-legs"><rect class="cls-14" x="820.8" y="729.01" width="30.59" height="123.83" rx="12"/><rect class="cls-14" x="915.25" y="729.01" width="30.59" height="123.83" rx="12"/></g><g id="manhattan-body"><rect class="cls-15" x="811.8" y="301.98" width="143.05" height="516.05" rx="44.36"/></g><g id="manhattan-eyes"><circle class="cls-14" cx="841.62" cy="490.3" r="11.43"/><circle class="cls-14" cx="926.41" cy="490.3" r="11.43"/></g><g id="queens-body"><path class="cls-4" d="M1507.37,604.43c-2.83,0-5.63.15-8.39.42a110.52,110.52,0,0,0-109-128.3,110.19,110.19,0,0,0-83,37.59,97.86,97.86,0,0,0-145.39,85.52c0,2.1.08,4.19.21,6.26a72.63,72.63,0,1,0-14.69,143.75A91.17,91.17,0,0,0,1305.69,811a104.21,104.21,0,0,0,186.76-42.59,82.66,82.66,0,1,0,14.92-164Zm-198.24,79.49c-1.19,1.45-2.33,2.94-3.44,4.45-.51-.57-1-1.13-1.57-1.68Q1306.67,685.37,1309.13,683.92Z"/></g><g id="queens-eyes"><circle class="cls-16" cx="1247.62" cy="658.51" r="11.43"/><circle class="cls-16" cx="1413.28" cy="658.51" r="11.43"/></g></svg>