<svg xmlns="http://www.w3.org/2000/svg" viewBox="0 0 1920 1080"><defs><style>.cls-1{fill:#d2f9ff;}.cls-2{fill:#8cc63f;}.cls-3,.cls-5{fill:#603813;}.cls-4{fill:#fff;}.cls-5{font-size:36px;font-family:Futura-Bold, Futura;font-weight:700;}.cls-6{letter-spacing:-0.05em;}</style></defs><g id="sky"><rect class="cls-1" width="1920" height="1080"/></g><g id="grass"><ellipse class="cls-2" cx="950.06" cy="1080" rx="1069.78" ry="150.65"/></g><g id="house"><rect class="cls-3" x="694.32" y="514.4" width="583.64" height="493.57" rx="40.05"/></g><g id="chimney"><rect class="cls-3" x="1123.35" y="265.62" width="98.17" height="169.62"/></g><g id="chimney-top"><rect class="cls-4" x="1105.36" y="221.93" width="136.21" height="43.69"/></g><g id="roof"><polygon class="cls-4" points="1391.68 542 986.14 542 580.61 542 783.37 364.67 986.14 187.34 1188.91 364.67 1391.68 542"/></g><g id="window"><rect class="cls-4" x="1026.34" y="695.72" width="131.07" height="131.07" rx="43.76"/></g><g id="window-frame"><polygon class="cls-3" points="1158.39 755.88 1097.11 755.88 1097.11 695.72 1086.89 695.72 1086.89 755.88 1026.34 755.88 1026.34 766.09 1086.89 766.09 1086.89 826.78 1097.11 826.78 1097.11 766.09 1158.39 766.09 1158.39 755.88"/></g><g id="doorplate"><rect class="cls-4" x="832.17" y="721.07" width="108" height="47.14" rx="15.46"/></g><g id="nyc"><text class="cls-5" transform="translate(844.03 757.64)">N<tspan class="cls-6" x="32.8" y="0">Y</tspan><tspan x="56.84" y="0">C</tspan></text></g><g id="door"><path class="cls-4" d="M939.14,998.36H827.63a.94.94,0,0,1-.93-.94V829.66a29.42,29.42,0,0,1,29.42-29.42h54.53a29.42,29.42,0,0,1,29.42,29.42V997.42A.93.93,0,0,1,939.14,998.36Z"/></g><g id="doornob"><circle class="cls-3" cx="920.66" cy="906.72" r="7.6"/></g></svg>